<?xml version="1.0" standalone="no"?>
<!DOCTYPE svg PUBLIC "-//W3C//DTD SVG 20010904//EN"
 "http://www.w3.org/TR/2001/REC-SVG-20010904/DTD/svg10.dtd">
<svg version="1.0" xmlns="http://www.w3.org/2000/svg"
 width="447.000000pt" height="844.000000pt" viewBox="0 0 447.000000 844.000000"
 preserveAspectRatio="xMidYMid meet">

<g transform="translate(0.000000,844.000000) scale(0.100000,-0.100000)"
fill="#000000" stroke="none">
<path d="M2370 7933 c-8 -3 -26 -14 -39 -24 -30 -24 -52 -23 -121 1 -74 26
-117 26 -125 0 -3 -11 -12 -20 -18 -20 -7 0 -25 -11 -42 -24 l-30 -24 23 -24
c12 -13 22 -33 22 -43 0 -16 -6 -17 -53 -12 l-54 5 -9 -41 c-8 -36 -14 -44
-43 -53 -20 -7 -29 -14 -22 -18 27 -17 10 -29 -33 -23 -36 5 -47 3 -62 -14
-10 -11 -37 -24 -60 -30 -41 -10 -56 -26 -58 -59 -1 -16 -60 -31 -93 -23 -18
4 -23 1 -23 -16 0 -20 -5 -21 -81 -21 -76 0 -80 -1 -74 -20 4 -11 1 -46 -5
-77 -11 -49 -21 -66 -74 -121 -33 -35 -76 -70 -94 -78 -37 -15 -67 -72 -58
-110 8 -29 -4 -30 -64 -9 -53 19 -56 19 -64 -2 -4 -9 4 -31 19 -52 30 -45 44
-101 24 -101 -8 0 -24 16 -37 35 -25 39 -37 42 -70 19 -33 -23 -27 -43 29 -93
l51 -46 -17 -45 c-10 -25 -31 -59 -46 -75 -34 -37 -35 -38 -9 -73 48 -68 33
-106 -49 -117 -27 -4 -58 -13 -68 -20 -17 -14 -17 -15 3 -52 12 -21 33 -44 47
-51 37 -18 66 -58 72 -101 4 -20 15 -57 27 -82 23 -54 20 -64 -28 -84 -40 -16
-43 -30 -12 -46 36 -18 68 -51 68 -69 0 -9 15 -32 33 -51 35 -36 51 -94 48
-170 -1 -22 5 -41 14 -49 21 -18 19 -29 -10 -42 -34 -15 -31 -31 10 -51 34
-16 45 -39 25 -52 -5 -3 -10 -15 -10 -25 0 -13 14 -23 53 -36 28 -10 56 -17
60 -16 4 1 19 -23 33 -53 24 -52 25 -58 10 -74 -9 -10 -16 -21 -16 -26 0 -5
-9 -19 -20 -30 l-21 -22 22 -37 c24 -42 30 -43 47 -16 17 28 40 25 49 -7 14
-54 7 -98 -21 -146 -26 -43 -32 -48 -55 -43 -14 3 -59 9 -99 12 -62 6 -72 5
-72 -9 0 -9 6 -20 13 -24 25 -16 37 -59 25 -91 -10 -25 -7 -39 16 -94 15 -36
26 -74 24 -84 -4 -24 -64 -64 -94 -64 -28 0 -94 -57 -125 -107 -26 -41 -21
-56 45 -142 24 -31 58 -82 76 -113 l32 -58 -16 -47 c-33 -97 -15 -167 58 -229
44 -36 46 -41 46 -89 0 -65 24 -146 50 -170 20 -18 21 -18 70 37 28 31 80 78
116 103 42 30 71 59 80 81 16 39 28 47 54 39 25 -8 37 -50 20 -70 -7 -8 -37
-27 -67 -41 l-54 -27 50 -51 c28 -29 51 -59 51 -69 0 -21 1 -21 -43 -2 -20 8
-40 15 -44 15 -4 0 -8 -37 -8 -83 l0 -82 33 -10 c36 -10 39 -20 15 -47 -11
-12 -18 -39 -20 -74 -1 -30 -5 -59 -8 -64 -3 -5 -27 -22 -53 -37 -71 -40 -100
-71 -122 -130 -11 -30 -20 -55 -20 -57 0 -2 11 -11 25 -20 24 -16 25 -15 40
15 l16 30 25 -37 c26 -38 26 -64 0 -64 -8 0 -24 -12 -36 -27 l-22 -28 25 -20
c13 -11 33 -25 43 -31 15 -10 17 -14 6 -25 -6 -7 -12 -28 -12 -45 0 -44 -17
-58 -94 -79 -37 -10 -66 -23 -66 -30 0 -18 31 -42 63 -51 38 -9 43 -27 17 -64
-15 -21 -20 -39 -16 -55 5 -19 0 -29 -23 -46 -16 -12 -31 -29 -34 -39 -2 -10
-23 -24 -48 -32 -54 -18 -61 -47 -14 -60 27 -6 31 -12 33 -45 2 -21 4 -49 5
-62 2 -21 -4 -26 -35 -34 -43 -10 -46 -17 -18 -42 26 -24 25 -41 -5 -71 -30
-30 -30 -30 -5 -37 25 -6 34 -29 26 -63 -6 -23 -10 -25 -49 -19 -47 6 -54 3
-81 -39 -17 -26 -17 -30 -2 -38 9 -5 28 -20 44 -33 27 -23 27 -24 10 -53 -10
-17 -18 -50 -18 -76 0 -45 0 -45 -29 -40 -45 9 -63 -26 -61 -118 1 -40 2 -82
1 -93 -2 -18 -2 -19 -12 -2 -12 21 -67 23 -94 3 -19 -14 -19 -16 -3 -50 10
-20 15 -42 12 -50 -3 -9 5 -39 19 -68 14 -29 28 -68 32 -85 5 -28 4 -32 -9
-27 -9 3 -28 3 -42 0 -25 -7 -26 -10 -21 -48 3 -23 13 -45 21 -50 22 -12 24
-170 3 -162 -18 7 -35 -15 -43 -54 -6 -27 -3 -33 18 -41 23 -9 26 -16 31 -83
4 -56 2 -77 -10 -90 -12 -13 -12 -23 -2 -57 8 -27 18 -41 29 -41 9 0 27 -11
40 -25 21 -22 23 -30 13 -54 -10 -27 -7 -32 56 -98 61 -62 79 -74 212 -135
194 -89 229 -100 339 -105 80 -4 104 -2 151 16 126 48 208 133 269 278 29 67
34 93 38 183 4 94 2 113 -23 185 -30 89 -51 129 -107 196 -49 60 -90 79 -171
79 -67 0 -233 -37 -283 -63 -43 -22 -85 -67 -91 -99 -3 -15 -9 -25 -14 -22
-16 10 -9 63 20 156 17 51 41 139 56 195 14 57 43 153 66 215 22 62 57 163 79
223 42 121 90 233 233 550 52 116 136 309 187 430 51 121 103 240 115 265 24
46 29 52 110 130 96 92 341 436 421 590 24 47 64 120 88 164 69 124 79 164 80
351 l1 162 43 63 c23 35 47 82 54 104 19 68 13 229 -16 430 -42 292 -92 459
-210 701 -68 139 -126 226 -251 374 -69 82 -81 92 -105 88 -41 -9 -99 31 -145
97 -24 34 -59 69 -87 87 -29 17 -55 44 -67 67 -11 21 -27 44 -35 51 -17 14
-20 43 -7 75 7 18 8 18 29 -4 16 -18 19 -27 11 -37 -21 -24 -2 -41 53 -48 36
-5 67 -2 96 8 38 13 48 13 90 0 27 -9 94 -16 157 -17 79 -2 119 -7 141 -19 34
-17 106 -98 168 -187 22 -30 46 -59 54 -64 8 -5 57 -47 108 -93 65 -58 96 -94
102 -116 5 -21 27 -46 68 -77 42 -34 63 -58 75 -89 8 -23 27 -53 42 -67 15
-14 27 -34 27 -45 0 -76 87 -93 250 -49 77 21 102 38 98 68 -2 22 4 30 40 50
93 52 83 91 -39 163 -61 36 -111 75 -149 116 -67 74 -188 244 -255 361 -47 81
-48 84 -61 220 -7 75 -17 159 -23 186 -6 33 -5 82 2 143 10 88 9 95 -10 121
-18 24 -28 28 -91 32 l-72 5 -40 54 c-43 56 -70 133 -95 264 -9 52 -11 86 -5
102 7 19 3 39 -19 88 -31 68 -84 122 -132 132 -15 4 -35 17 -43 31 -11 16 -30
26 -57 30 -33 6 -42 12 -54 40 -12 29 -19 34 -47 33 -18 0 -40 -3 -48 -6z"/>
</g>
</svg>
